<?xml version="1.0" standalone="no"?>
<!DOCTYPE svg PUBLIC "-//W3C//DTD SVG 20010904//EN"
 "http://www.w3.org/TR/2001/REC-SVG-20010904/DTD/svg10.dtd">
<svg version="1.0" xmlns="http://www.w3.org/2000/svg"
 width="512.000000pt" height="512.000000pt" viewBox="0 0 512.000000 512.000000"
 preserveAspectRatio="xMidYMid meet">

<g transform="translate(0.000000,512.000000) scale(0.100000,-0.100000)"
fill="#000000" stroke="none">
<path d="M2385 5113 c-440 -36 -854 -192 -1212 -456 -132 -97 -373 -337 -470
-467 -462 -623 -587 -1408 -341 -2145 77 -231 240 -528 393 -716 244 -297 546
-524 899 -676 77 -33 78 -33 73 -11 -3 13 -14 74 -23 136 l-18 114 -96 48
c-604 304 -1030 930 -1111 1629 -15 134 -7 455 15 574 148 794 682 1405 1439
1647 507 161 1058 120 1542 -115 647 -314 1083 -932 1166 -1655 19 -167 7
-476 -25 -625 -92 -435 -275 -775 -580 -1081 -166 -165 -328 -285 -509 -375
-45 -23 -84 -43 -86 -45 -3 -3 -17 -74 -46 -241 -6 -32 -5 -32 23 -22 16 5 92
41 168 78 284 139 529 329 732 566 300 350 490 782 548 1245 22 182 15 482
-16 660 -66 374 -219 724 -453 1034 -84 113 -323 349 -438 433 -250 185 -519
317 -799 392 -234 63 -548 93 -775 74z"/>
<path d="M2420 4414 c-14 -2 -68 -12 -120 -20 -414 -71 -797 -360 -993 -750
-48 -95 -102 -260 -123 -375 -24 -130 -24 -363 -1 -489 53 -284 189 -541 394
-747 57 -57 107 -103 113 -103 5 0 24 28 41 62 17 34 42 79 56 100 l25 38 -71
70 c-245 243 -371 599 -332 940 34 288 146 515 353 716 155 150 309 234 538
295 111 29 338 37 454 15 245 -47 441 -144 609 -305 145 -138 240 -287 302
-474 142 -426 32 -881 -290 -1199 l-68 -67 31 -48 c17 -26 41 -69 53 -95 13
-27 26 -48 30 -48 3 0 45 37 93 82 224 209 364 472 418 783 17 101 19 145 15
280 -4 88 -13 192 -22 230 -124 558 -543 973 -1095 1087 -91 18 -352 33 -410
22z"/>
<path d="M2485 3604 c-197 -30 -365 -153 -450 -329 -103 -216 -64 -470 99
-643 116 -122 251 -183 411 -184 111 -2 178 13 275 60 93 45 200 148 248 239
41 78 72 198 72 278 0 80 -31 200 -72 278 -65 123 -210 241 -345 280 -55 17
-189 28 -238 21z m228 -269 c208 -105 256 -384 94 -548 -73 -73 -132 -100
-232 -105 -65 -3 -91 0 -139 18 -214 81 -294 353 -156 532 45 59 81 87 148
115 48 20 71 23 142 21 71 -3 95 -8 143 -33z"/>
<path d="M2415 2204 c-301 -46 -473 -193 -532 -454 -48 -211 2 -763 107 -1193
58 -239 114 -372 196 -465 81 -93 85 -93 383 -90 l258 3 41 29 c124 86 218
303 292 676 88 442 115 833 71 1037 -37 174 -137 314 -272 380 -114 56 -197
74 -364 78 -82 2 -163 1 -180 -1z m263 -235 c201 -22 291 -98 328 -275 32
-152 6 -518 -60 -870 -59 -307 -111 -474 -179 -566 l-21 -28 -187 0 -188 0
-25 33 c-78 102 -153 381 -211 779 -51 360 -52 594 -3 724 64 167 248 236 546
203z"/>
</g>
</svg>
