<?xml version='1.0' encoding='utf-8'?>
<svg xmlns="http://www.w3.org/2000/svg" viewBox="0 0 463.89 438.88">
 <g fill="#3f3f3f" stroke-width=".4">
  <path d="m394.81 222.1zl-162.81-144.19-162.91 144.25v206.12c0 5.3234 4.3016 9.5938 9.625 9.5938h101.81v-90.375c0-5.3234 4.2704-9.625 9.5938-9.625h83.656c5.3234 0 9.5938 4.3016 9.5938 9.625v90.375h101.84c5.3234 0 6.5938 0.72968 9.5938-9.5938v-206.19zm-325.72 0.0625z"/>
  <path d="m231.05-1l-231.05 204.58 24.338 27.457 207.66-183.88 207.61 183.88 24.291-27.457-231-204.58-0.8979 1.0397-0.9452-1.0397z"/>
 </g>
 <text transform="matrix(1.6289 0 0 1.8445 -199.66 -114.81)" x="265.863851" y="204.4664" fill="#19a819" font-family="Trebuchet MS" font-size="24" stroke-width="0" text-anchor="middle">Simply Organized</text>
 <g fill="#3f3f3f" stroke-width=".4">
  <path d="m396.51 222.1zl-163.51-144.19-163.61 144.25v206.12c0 5.3234 4.3202 9.5938 9.6665 9.5938h102.25v-90.375c0-5.3234 4.2888-9.625 9.6351-9.625h84.017c5.3463 0 9.6351 4.3016 9.6351 9.625v90.375h102.28c5.3463 0 6.6222 0.72968 9.6351-9.5938v-206.19zm-327.12 0.0625z"/>
  <path d="m232.04-1l-232.04 204.58 24.443 27.457 208.55-183.88 208.5 183.88 24.396-27.457-232-204.58-0.9018 1.0397-0.9493-1.0397z"/>
 </g>
</svg>